<svg width="20" height="20" viewBox="0 0 20 20" fill="none" xmlns="http://www.w3.org/2000/svg">
<path d="M8.12408 8.12592V18.4384C8.12267 18.5619 8.14595 18.6845 8.19257 18.7988C8.23918 18.9132 8.30818 19.0171 8.39552 19.1045C8.48286 19.1918 8.58677 19.2608 8.70115 19.3074C8.81553 19.354 8.93808 19.3773 9.06158 19.3759V19.3759C9.18509 19.3773 9.30763 19.354 9.42202 19.3074C9.5364 19.2608 9.64031 19.1918 9.72765 19.1045C9.81499 19.0171 9.88399 18.9132 9.9306 18.7988C9.97722 18.6845 10.0005 18.5619 9.99909 18.4384" stroke="#41426F" stroke-width="1.00189" stroke-miterlimit="10" stroke-linecap="round"/>
<path d="M10.0001 13.1259V18.4384C9.99865 18.5619 10.0219 18.6845 10.0685 18.7988C10.1152 18.9132 10.1842 19.0171 10.2715 19.1045C10.3588 19.1918 10.4627 19.2608 10.5771 19.3074C10.6915 19.354 10.8141 19.3773 10.9376 19.3759C11.0611 19.3773 11.1836 19.354 11.298 19.3074C11.4124 19.2608 11.5163 19.1918 11.6036 19.1045C11.691 19.0171 11.76 18.9132 11.8066 18.7988C11.8532 18.6845 11.8765 18.5619 11.8751 18.4384V8.12592" stroke="#41426F" stroke-width="1.00189" stroke-miterlimit="10" stroke-linecap="round"/>
<path d="M8.12533 7.5007V10.9387C8.1268 11.0622 8.10355 11.1848 8.05695 11.2992C8.01035 11.4137 7.94134 11.5176 7.85398 11.605C7.76661 11.6923 7.66267 11.7613 7.54825 11.8079C7.43382 11.8545 7.31124 11.8778 7.1877 11.8763V11.8763C7.06416 11.8778 6.94158 11.8545 6.82715 11.8079C6.71273 11.7613 6.60878 11.6923 6.52142 11.605C6.43406 11.5176 6.36505 11.4137 6.31845 11.2992C6.27185 11.1848 6.2486 11.0622 6.25007 10.9387V7.5007C6.25007 7.00334 6.44764 6.52636 6.79932 6.17468C7.151 5.823 7.62798 5.62543 8.12533 5.62543H11.8759C12.3732 5.62543 12.8502 5.823 13.2019 6.17468C13.5536 6.52636 13.7511 7.00334 13.7511 7.5007V10.9387C13.7526 11.0622 13.7294 11.1848 13.6828 11.2992C13.6362 11.4137 13.5671 11.5176 13.4798 11.605C13.3924 11.6923 13.2885 11.7613 13.174 11.8079C13.0596 11.8545 12.937 11.8778 12.8135 11.8763V11.8763C12.69 11.8778 12.5674 11.8545 12.453 11.8079C12.3385 11.7613 12.2346 11.6923 12.1472 11.605C12.0599 11.5176 11.9909 11.4137 11.9443 11.2992C11.8977 11.1848 11.8744 11.0622 11.8759 10.9387V7.5007" stroke="#41426F" stroke-width="1.00189" stroke-miterlimit="10" stroke-linecap="round"/>
<path d="M10.0011 3.75315C10.8647 3.75315 11.5648 3.05308 11.5648 2.1895C11.5648 1.32592 10.8647 0.625854 10.0011 0.625854C9.13757 0.625854 8.4375 1.32592 8.4375 2.1895C8.4375 3.05308 9.13757 3.75315 10.0011 3.75315Z" stroke="#41426F" stroke-width="1.00189" stroke-miterlimit="10" stroke-linecap="round"/>
</svg>
