<svg width="62" height="62" viewBox="0 0 62 62" fill="none" xmlns="http://www.w3.org/2000/svg">
<path d="M30.5139 40.3123V40.8132V40.3123ZM24.2873 20.3441L24.6285 19.9773L24.626 19.975L24.2873 20.3441ZM22.6415 19.6873L22.6441 19.1863L22.6351 19.1863L22.6261 19.1865L22.6415 19.6873ZM22.489 19.6919L22.4737 19.1912L22.4652 19.1915L22.4567 19.192L22.489 19.6919ZM20.0225 22.6755H20.5234L20.5234 22.6743L20.0225 22.6755ZM20.617 24.271L21.0248 23.9801L21.0201 23.9736L20.617 24.271ZM20.794 24.3748L20.7499 24.8738L20.7719 24.8757H20.794V24.3748ZM20.8421 24.3748V24.8758L20.8517 24.8756L20.8421 24.3748ZM20.9809 24.298L20.6176 23.9531L20.5906 23.9815L20.5684 24.0138L20.9809 24.298ZM24.3016 20.8005L24.6649 21.1455L24.6698 21.1401L24.3016 20.8005ZM24.3862 20.5662L23.8856 20.5824L23.8857 20.585L24.3862 20.5662ZM36.7328 20.3441L36.3941 19.975L36.3916 19.9773L36.7328 20.3441ZM38.3786 19.6873L38.394 19.1865L38.385 19.1863L38.3761 19.1863L38.3786 19.6873ZM38.5311 19.6919L38.5634 19.192L38.5549 19.1915L38.5465 19.1912L38.5311 19.6919ZM40.9977 22.6755L40.4967 22.6743V22.6755H40.9977ZM40.4031 24.271L40 23.9736L39.9962 23.9789L40.4031 24.271ZM40.2261 24.3742V24.8751H40.2477L40.2692 24.8733L40.2261 24.3742ZM40.178 24.3742L40.1684 24.8751H40.178V24.3742ZM40.0392 24.2974L40.4517 24.0132L40.4295 23.9809L40.4025 23.9525L40.0392 24.2974ZM36.7186 20.8005L36.3503 21.1402L36.3553 21.1455L36.7186 20.8005ZM36.6339 20.5662L37.1345 20.585L37.1346 20.5824L36.6339 20.5662ZM31.0148 24.3748C31.0148 24.0982 30.7905 23.8739 30.5139 23.8739C30.2372 23.8739 30.0129 24.0982 30.0129 24.3748H31.0148ZM30.5139 30.9373V31.4383C30.7905 31.4383 31.0148 31.214 31.0148 30.9373H30.5139ZM26.1425 30.4364C25.8658 30.4364 25.6415 30.6607 25.6415 30.9373C25.6415 31.214 25.8658 31.4383 26.1425 31.4383V30.4364ZM38.8904 40.6542C39.0791 40.8565 39.3961 40.8675 39.5984 40.6789C39.8007 40.4902 39.8118 40.1732 39.6231 39.9708L38.8904 40.6542ZM37.4374 37.6271C37.2487 37.4248 36.9317 37.4137 36.7294 37.6024C36.527 37.7911 36.516 38.1081 36.7047 38.3104L37.4374 37.6271ZM21.4047 39.9708C21.216 40.1732 21.2271 40.4902 21.4294 40.6789C21.6317 40.8675 21.9487 40.8565 22.1374 40.6542L21.4047 39.9708ZM24.3231 38.3104C24.5118 38.1081 24.5008 37.7911 24.2984 37.6024C24.0961 37.4137 23.7791 37.4248 23.5904 37.6271L24.3231 38.3104ZM39.7577 30.9373C39.7577 28.9915 39.2198 27.0868 38.2085 25.4639L37.3582 25.9937C38.2682 27.4542 38.7558 29.1747 38.7558 30.9373H39.7577ZM38.2085 25.4639C37.197 23.8407 35.7558 22.57 34.063 21.8181L33.6563 22.7337C35.1586 23.401 36.4483 24.5335 37.3582 25.9937L38.2085 25.4639ZM34.063 21.8181C32.3696 21.066 30.504 20.8685 28.7038 21.2525L28.9128 22.2323C30.5044 21.8929 32.1546 22.0667 33.6563 22.7337L34.063 21.8181ZM28.7038 21.2525C26.9038 21.6364 25.2556 22.583 23.9654 23.9665L24.6981 24.6498C25.8533 23.4111 27.3208 22.5719 28.9128 22.2323L28.7038 21.2525ZM23.9654 23.9665C22.6756 25.3496 21.8007 27.1078 21.4465 29.0169L22.4316 29.1997C22.7521 27.4717 23.5426 25.8889 24.6981 24.6498L23.9654 23.9665ZM21.4465 29.0169C21.0924 30.926 21.2739 32.9052 21.9693 34.7055L22.9039 34.3444C22.2758 32.7186 22.111 30.9277 22.4316 29.1997L21.4465 29.0169ZM21.9693 34.7055C22.6648 36.5059 23.8446 38.0503 25.3649 39.1395L25.9484 38.3251C24.5931 37.3541 23.5318 35.9701 22.9039 34.3444L21.9693 34.7055ZM25.3649 39.1395C26.8856 40.2291 28.6775 40.8132 30.5139 40.8132V39.8113C28.8919 39.8113 27.3032 39.2958 25.9484 38.3251L25.3649 39.1395ZM30.5139 40.8132C32.9772 40.8132 35.332 39.7636 37.0624 37.9081L36.3297 37.2248C34.7809 38.8855 32.6881 39.8113 30.5139 39.8113V40.8132ZM37.0624 37.9081C38.7917 36.0537 39.7577 33.5457 39.7577 30.9373H38.7558C38.7558 33.3017 37.8796 35.5628 36.3297 37.2248L37.0624 37.9081ZM24.626 19.975C24.0786 19.4727 23.3766 19.1901 22.6441 19.1863L22.6389 20.1882C23.114 20.1906 23.5785 20.3735 23.9487 20.7132L24.626 19.975ZM22.6261 19.1865L22.4737 19.1912L22.5044 20.1927L22.6569 20.188L22.6261 19.1865ZM22.4567 19.192C20.7414 19.3029 19.5172 20.8892 19.5215 22.6767L20.5234 22.6743C20.5201 21.2978 21.4445 20.2614 22.5214 20.1918L22.4567 19.192ZM19.5215 22.6755C19.5215 23.1224 19.596 23.4752 19.7327 23.7903C19.8647 24.0942 20.047 24.3423 20.2139 24.5685L21.0201 23.9736C20.8471 23.7393 20.7322 23.5766 20.6518 23.3914C20.5763 23.2173 20.5234 23.0027 20.5234 22.6755H19.5215ZM20.2092 24.562C20.2701 24.6474 20.3489 24.7207 20.442 24.7753L20.9485 23.9108C20.9806 23.9296 21.0061 23.9539 21.0248 23.9801L20.2092 24.562ZM20.442 24.7753C20.5354 24.8299 20.6403 24.8641 20.7499 24.8738L20.8381 23.8758C20.8785 23.8793 20.9161 23.8918 20.9485 23.9108L20.442 24.7753ZM20.794 24.8757H20.8421V23.8738H20.794V24.8757ZM20.8517 24.8756C20.9617 24.8735 21.068 24.8442 21.1623 24.7921L20.6774 23.9154C20.7236 23.8898 20.7767 23.875 20.8325 23.8739L20.8517 24.8756ZM21.1623 24.7921C21.2564 24.7401 21.3347 24.6674 21.3934 24.5822L20.5684 24.0138C20.5949 23.9753 20.6315 23.9408 20.6774 23.9154L21.1623 24.7921ZM21.3442 24.6429L24.6648 21.1455L23.9383 20.4556L20.6176 23.9531L21.3442 24.6429ZM24.6698 21.1401C24.7445 21.0591 24.8011 20.9645 24.8378 20.863L23.8955 20.5225C23.903 20.5017 23.9153 20.4805 23.9333 20.4609L24.6698 21.1401ZM24.8378 20.863C24.8744 20.7616 24.8909 20.6543 24.8868 20.5473L23.8857 20.585C23.8849 20.5645 23.888 20.5433 23.8955 20.5225L24.8378 20.863ZM24.8869 20.5499C24.8835 20.4437 24.8597 20.3384 24.816 20.2403L23.9007 20.6479C23.8911 20.6262 23.8863 20.604 23.8856 20.5824L24.8869 20.5499ZM24.816 20.2403C24.7723 20.1421 24.7091 20.0522 24.6285 19.9773L23.9462 20.7109C23.9253 20.6915 23.9104 20.6696 23.9007 20.6479L24.816 20.2403ZM37.0715 20.7132C37.4417 20.3735 37.9061 20.1906 38.3812 20.1882L38.3761 19.1863C37.6435 19.1901 36.9415 19.4727 36.3941 19.975L37.0715 20.7132ZM38.3632 20.188L38.5157 20.1927L38.5465 19.1912L38.394 19.1865L38.3632 20.188ZM38.4988 20.1918C39.5757 20.2614 40.5 21.2978 40.4967 22.6743L41.4986 22.6767C41.5029 20.8892 40.2787 19.3029 38.5634 19.192L38.4988 20.1918ZM40.4967 22.6755C40.4967 23.0027 40.4439 23.2173 40.3683 23.3914C40.288 23.5766 40.173 23.7393 40.0001 23.9736L40.8062 24.5685C40.9732 24.3423 41.1555 24.0942 41.2874 23.7903C41.4241 23.4752 41.4986 23.1224 41.4986 22.6755H40.4967ZM39.9962 23.9789C40.0149 23.9528 40.0405 23.9286 40.0727 23.9098L40.5769 24.7756C40.6701 24.7213 40.749 24.6483 40.8101 24.5632L39.9962 23.9789ZM40.0727 23.9098C40.105 23.891 40.1426 23.8786 40.183 23.8751L40.2692 24.8733C40.3788 24.8638 40.4836 24.8299 40.5769 24.7756L40.0727 23.9098ZM40.2261 23.8732H40.178V24.8751H40.2261V23.8732ZM40.1876 23.8733C40.2434 23.8744 40.2966 23.8893 40.3427 23.9148L39.8578 24.7915C39.9521 24.8437 40.0585 24.8729 40.1684 24.875L40.1876 23.8733ZM40.3427 23.9148C40.3887 23.9402 40.4252 23.9748 40.4517 24.0132L39.6267 24.5817C39.6854 24.6668 39.7638 24.7395 39.8578 24.7915L40.3427 23.9148ZM40.4025 23.9525L37.0818 20.4556L36.3553 21.1455L39.676 24.6424L40.4025 23.9525ZM37.0869 20.4609C37.1049 20.4805 37.1171 20.5017 37.1246 20.5225L36.1824 20.863C36.219 20.9645 36.2756 21.0591 36.3503 21.1401L37.0869 20.4609ZM37.1246 20.5225C37.1321 20.5433 37.1353 20.5645 37.1345 20.585L36.1333 20.5473C36.1293 20.6543 36.1457 20.7616 36.1824 20.863L37.1246 20.5225ZM37.1346 20.5824C37.1339 20.604 37.129 20.6262 37.1194 20.6479L36.2042 20.2403C36.1605 20.3384 36.1367 20.4437 36.1332 20.5499L37.1346 20.5824ZM37.1194 20.6479C37.1097 20.6696 37.0949 20.6914 37.074 20.7109L36.3916 19.9773C36.3111 20.0522 36.2479 20.1421 36.2042 20.2403L37.1194 20.6479ZM30.0129 24.3748V30.9373H31.0148V24.3748H30.0129ZM30.5139 30.4364H26.1425V31.4383H30.5139V30.4364ZM39.6231 39.9708L37.4374 37.6271L36.7047 38.3104L38.8904 40.6542L39.6231 39.9708ZM22.1374 40.6542L24.3231 38.3104L23.5904 37.6271L21.4047 39.9708L22.1374 40.6542Z" fill="#AACE9B"/>
<path d="M31.1364 2.11035L2.11035 31.1364L31.1364 60.1625L60.1625 31.1364L31.1364 2.11035Z" stroke="#AACE9B" stroke-width="2" stroke-linecap="round"/>
</svg>
