<svg width="24" height="24" viewBox="0 0 24 24" fill="none" xmlns="http://www.w3.org/2000/svg">
<path fill-rule="evenodd" clip-rule="evenodd" d="M6.90908 6H17.0908C18.1372 6 18.9916 6.8494 18.9998 7.89392C19 7.90271 19.0001 7.9115 18.9999 7.92028V15.5454C18.9999 16.5968 18.1423 17.4545 17.0908 17.4545H6.90908C5.85763 17.4545 5 16.5968 5 15.5454V7.90908C5 6.85763 5.85763 6 6.90908 6ZM17.6593 7.62531C17.5541 7.41716 17.3376 7.27272 17.0907 7.27272H6.90899C6.66213 7.27272 6.44574 7.41709 6.34048 7.62517L12 11.5868L17.6593 7.62531ZM6.27263 9.13122L11.6351 12.8849C11.8542 13.0383 12.1458 13.0383 12.3649 12.8849L17.7271 9.13142V15.5454C17.7271 15.8939 17.4393 16.1817 17.0907 16.1817H6.90899C6.56045 16.1817 6.27263 15.8939 6.27263 15.5454V9.13122Z" fill="white"/>
<mask id="mask0_1741_12539" style="mask-type:alpha" maskUnits="userSpaceOnUse" x="5" y="6" width="14" height="12">
<path fill-rule="evenodd" clip-rule="evenodd" d="M6.90908 6H17.0908C18.1372 6 18.9916 6.8494 18.9998 7.89392C19 7.90271 19.0001 7.9115 18.9999 7.92028V15.5454C18.9999 16.5968 18.1423 17.4545 17.0908 17.4545H6.90908C5.85763 17.4545 5 16.5968 5 15.5454V7.90908C5 6.85763 5.85763 6 6.90908 6ZM17.6593 7.62531C17.5541 7.41716 17.3376 7.27272 17.0907 7.27272H6.90899C6.66213 7.27272 6.44574 7.41709 6.34048 7.62517L12 11.5868L17.6593 7.62531ZM6.27263 9.13122L11.6351 12.8849C11.8542 13.0383 12.1458 13.0383 12.3649 12.8849L17.7271 9.13142V15.5454C17.7271 15.8939 17.4393 16.1817 17.0907 16.1817H6.90899C6.56045 16.1817 6.27263 15.8939 6.27263 15.5454V9.13122Z" fill="white"/>
</mask>
<g mask="url(#mask0_1741_12539)">
<rect x="4.36328" y="4.09094" width="15.2726" height="15.2726" fill="white"/>
</g>
</svg>
