<svg width="62" height="62" viewBox="0 0 62 62" fill="none" xmlns="http://www.w3.org/2000/svg">
<path d="M31.0261 2L2 31.0261L31.0261 60.0521L60.0521 31.0261L31.0261 2Z" stroke="#AACE9B" stroke-width="2" stroke-linecap="round"/>
<path d="M39.0975 24.9556C38.9373 27.3389 37.2871 29.1749 35.4876 29.1749C33.6882 29.1749 32.0353 27.3395 31.8777 24.9556C31.7137 22.4761 33.3201 20.7362 35.4876 20.7362C37.6552 20.7362 39.2616 22.5212 39.0975 24.9556Z" stroke="#AACE9B" stroke-width="1.00189" stroke-linecap="round" stroke-linejoin="round"/>
<path d="M35.4861 32.9243C31.9221 32.9243 28.4949 34.821 27.6363 38.5147C27.5225 39.0034 27.8085 39.4868 28.2772 39.4868H42.6956C43.1642 39.4868 43.4486 39.0034 43.3365 38.5147C42.4779 34.7618 39.0506 32.9243 35.4861 32.9243Z" stroke="#AACE9B" stroke-width="1.00189" stroke-miterlimit="10"/>
<path d="M28.0505 26.0079C27.9225 27.9118 26.5886 29.4112 25.1509 29.4112C23.7131 29.4112 22.3771 27.9124 22.2513 26.0079C22.1205 24.0272 23.4188 22.6116 25.1509 22.6116C26.883 22.6116 28.1813 24.0635 28.0505 26.0079Z" stroke="#AACE9B" stroke-width="1.00189" stroke-linecap="round" stroke-linejoin="round"/>
<path d="M28.3769 33.0406C27.3896 32.556 26.3023 32.3696 25.1499 32.3696C22.3057 32.3696 19.5655 33.8845 18.8791 36.8351C18.7888 37.2254 19.0174 37.6116 19.3915 37.6116H25.5327" stroke="#AACE9B" stroke-width="1.00189" stroke-miterlimit="10" stroke-linecap="round"/>
</svg>
