<svg width="62" height="62" viewBox="0 0 62 62" fill="none" xmlns="http://www.w3.org/2000/svg">
<path d="M31.0261 2L2 31.0261L31.0261 60.0521L60.0521 31.0261L31.0261 2Z" stroke="#AACE9B" stroke-width="2" stroke-linecap="round"/>
<g clip-path="url(#clip0_1741_12568)">
<path d="M39.1643 19.8587H32.4416C32.2326 19.8586 32.032 19.9411 31.8838 20.0884L18.4438 33.5251C18.1495 33.8208 17.9844 34.2209 17.9844 34.638C17.9844 35.0551 18.1495 35.4552 18.4438 35.7509L24.8422 42.1493C25.1379 42.4436 25.5382 42.6088 25.9554 42.6088C26.3725 42.6088 26.7728 42.4436 27.0685 42.1493L40.5047 28.7181C40.652 28.5698 40.7345 28.3693 40.7344 28.1603V21.4337C40.7354 21.227 40.6955 21.0221 40.617 20.8309C40.5385 20.6397 40.423 20.4659 40.2771 20.3195C40.1311 20.1731 39.9577 20.057 39.7667 19.978C39.5757 19.8989 39.371 19.8583 39.1643 19.8587Z" stroke="#AACE9B" stroke-width="1.00189" stroke-linecap="round" stroke-linejoin="round"/>
<path d="M36.3607 25.987C36.0143 25.987 35.6757 25.8843 35.3877 25.6919C35.0997 25.4994 34.8752 25.2259 34.7427 24.9059C34.6101 24.5859 34.5755 24.2338 34.643 23.8941C34.7106 23.5543 34.8774 23.2423 35.1223 22.9974C35.3672 22.7525 35.6793 22.5857 36.019 22.5181C36.3587 22.4505 36.7108 22.4852 37.0309 22.6177C37.3509 22.7503 37.6244 22.9748 37.8168 23.2628C38.0092 23.5508 38.112 23.8894 38.112 24.2357C38.112 24.7002 37.9274 25.1456 37.599 25.4741C37.2706 25.8025 36.8251 25.987 36.3607 25.987Z" fill="#AACE9B"/>
<path d="M29.6875 44.3594L44.0156 30.0313C44.0869 29.9595 44.1429 29.874 44.1805 29.7801C44.2181 29.6861 44.2364 29.5856 44.2344 29.4844V22.4844" stroke="#AACE9B" stroke-width="1.00189" stroke-linecap="round" stroke-linejoin="round"/>
</g>
<defs>
<clipPath id="clip0_1741_12568">
<rect width="28" height="28" fill="white" transform="translate(17.1104 18.1105)"/>
</clipPath>
</defs>
</svg>
