<svg width="22" height="20" viewBox="0 0 22 20" fill="none" xmlns="http://www.w3.org/2000/svg">
<path d="M8.25 6.875V5.3125C8.25 4.8981 8.43108 4.50067 8.75341 4.20765C9.07574 3.91462 9.51291 3.75 9.96875 3.75H16.8438C17.2996 3.75 17.7368 3.91462 18.0591 4.20765C18.3814 4.50067 18.5625 4.8981 18.5625 5.3125V14.6875C18.5625 15.1019 18.3814 15.4993 18.0591 15.7924C17.7368 16.0854 17.2996 16.25 16.8438 16.25H10.3125C9.36332 16.25 8.25 15.5504 8.25 14.6875V13.125" stroke="#41426F" stroke-width="1.00189" stroke-linecap="round" stroke-linejoin="round"/>
<path d="M12.375 13.1259L15.813 10.0004L12.375 6.875" stroke="#41426F" stroke-width="1.00189" stroke-linecap="round" stroke-linejoin="round"/>
<path d="M3.43652 9.99988H15.124" stroke="#41426F" stroke-width="1.00189" stroke-linecap="round" stroke-linejoin="round"/>
</svg>
